<?xml version="1.0" encoding="utf-8"?>
<!-- Generator: Adobe Illustrator 27.5.0, SVG Export Plug-In . SVG Version: 6.00 Build 0)  -->
<svg version="1.1" id="nownsurvey" xmlns="http://www.w3.org/2000/svg" xmlns:xlink="http://www.w3.org/1999/xlink" x="0px" y="0px"
	 viewBox="0 0 688 147.7" style="enable-background:new 0 0 688 147.7;" xml:space="preserve">
<style type="text/css">
	.st0{fill:#EB5D23;}
</style>
<g>
	<path class="st0" d="M59.2,104.9c0,0.5-0.1,0.9-0.4,1.2c-0.3,0.3-0.7,0.6-1.4,0.9c-0.6,0.2-1.5,0.4-2.6,0.5
		c-1.1,0.1-2.5,0.2-4.1,0.2c-1.7,0-3.1-0.1-4.2-0.2c-1.1-0.1-2-0.3-2.6-0.5c-0.6-0.2-1.1-0.5-1.4-0.9c-0.3-0.3-0.4-0.7-0.4-1.2V70.1
		c0-3-0.2-5.3-0.7-7c-0.4-1.7-1.1-3.1-1.9-4.3c-0.8-1.2-1.9-2.1-3.2-2.8c-1.3-0.7-2.8-1-4.6-1c-2.2,0-4.4,0.8-6.6,2.4
		c-2.2,1.6-4.6,3.9-7,7v40.6c0,0.5-0.1,0.9-0.4,1.2c-0.3,0.3-0.7,0.6-1.4,0.9c-0.7,0.2-1.5,0.4-2.6,0.5c-1.1,0.1-2.5,0.2-4.2,0.2
		c-1.7,0-3.1-0.1-4.2-0.2c-1.1-0.1-2-0.3-2.6-0.5c-0.7-0.2-1.1-0.5-1.4-0.9c-0.3-0.3-0.4-0.7-0.4-1.2v-61c0-0.5,0.1-0.9,0.3-1.2
		c0.2-0.3,0.6-0.6,1.2-0.9c0.6-0.2,1.4-0.4,2.3-0.5c0.9-0.1,2.1-0.2,3.5-0.2c1.5,0,2.7,0.1,3.6,0.2c1,0.1,1.7,0.3,2.2,0.5
		c0.5,0.2,0.9,0.5,1.1,0.9c0.2,0.3,0.3,0.7,0.3,1.2v7c3.4-3.6,6.8-6.4,10.3-8.2C29.4,40.9,33,40,36.8,40c4.2,0,7.7,0.7,10.5,2.1
		c2.9,1.4,5.2,3.2,6.9,5.6c1.8,2.4,3,5.1,3.8,8.2c0.8,3.1,1.2,6.9,1.2,11.4V104.9z"/>
	<path class="st0" d="M136,73.7c0,5.2-0.7,9.9-2,14.2c-1.4,4.3-3.4,7.9-6.2,11c-2.8,3.1-6.2,5.5-10.4,7.1c-4.2,1.7-9,2.5-14.6,2.5
		c-5.4,0-10.1-0.7-14.1-2.2c-4-1.5-7.3-3.7-9.9-6.5c-2.6-2.9-4.6-6.4-5.8-10.5C71.6,85.1,71,80.3,71,75c0-5.2,0.7-9.9,2.1-14.2
		c1.4-4.3,3.5-8,6.2-11c2.8-3.1,6.2-5.4,10.4-7.1c4.1-1.7,9-2.5,14.6-2.5c5.4,0,10.2,0.7,14.1,2.2c4,1.5,7.3,3.6,9.9,6.5
		c2.6,2.9,4.5,6.4,5.8,10.5C135.4,63.6,136,68.4,136,73.7 M118.4,74.4c0-3-0.2-5.7-0.7-8.3c-0.5-2.5-1.3-4.7-2.4-6.6
		c-1.1-1.9-2.6-3.3-4.5-4.4c-1.9-1-4.3-1.6-7.1-1.6c-2.5,0-4.8,0.5-6.7,1.4c-1.9,0.9-3.5,2.3-4.7,4.1c-1.2,1.8-2.1,3.9-2.8,6.5
		c-0.6,2.5-0.9,5.4-0.9,8.6c0,3,0.2,5.7,0.7,8.3c0.5,2.5,1.3,4.7,2.4,6.6c1.1,1.9,2.6,3.3,4.5,4.3c1.9,1,4.3,1.5,7.1,1.5
		c2.6,0,4.8-0.5,6.7-1.4c1.9-0.9,3.5-2.3,4.7-4c1.2-1.8,2.1-3.9,2.7-6.4C118.1,80.5,118.4,77.6,118.4,74.4"/>
	<path class="st0" d="M240.7,43.9c0,0.5-0.1,1.1-0.2,1.8c-0.1,0.7-0.4,1.8-0.7,3.1l-16.2,54.9c-0.2,0.8-0.5,1.4-0.9,1.9
		c-0.4,0.5-0.9,0.8-1.7,1.1c-0.7,0.3-1.8,0.5-3.2,0.5c-1.4,0.1-3.2,0.1-5.4,0.1c-2.2,0-4-0.1-5.4-0.2c-1.4-0.1-2.5-0.3-3.3-0.6
		c-0.8-0.3-1.4-0.6-1.7-1.1c-0.4-0.5-0.6-1.1-0.8-1.8L191,66.9l-0.1-0.6l-0.1,0.6l-9.4,36.9c-0.2,0.8-0.4,1.4-0.8,1.9
		c-0.3,0.5-0.9,0.8-1.7,1.1c-0.8,0.3-1.9,0.5-3.3,0.5c-1.4,0.1-3.2,0.1-5.4,0.1c-2.3,0-4.1-0.1-5.5-0.2c-1.4-0.1-2.5-0.3-3.3-0.6
		c-0.8-0.3-1.4-0.6-1.7-1.1c-0.4-0.5-0.6-1.1-0.8-1.8l-16-54.9c-0.4-1.3-0.7-2.3-0.8-3.1c-0.1-0.7-0.2-1.4-0.2-1.9
		c0-0.5,0.1-0.9,0.4-1.2c0.2-0.3,0.7-0.6,1.4-0.8c0.7-0.2,1.5-0.4,2.7-0.4c1.1-0.1,2.5-0.1,4.2-0.1c1.8,0,3.3,0,4.4,0.1
		c1.1,0.1,2,0.3,2.7,0.5c0.6,0.2,1.1,0.5,1.3,0.9c0.3,0.4,0.4,0.9,0.6,1.4l12,44.6l0.1,0.8l0.1-0.8l11.3-44.6c0.1-0.5,0.4-1,0.6-1.4
		c0.3-0.4,0.7-0.7,1.3-0.9c0.6-0.2,1.4-0.4,2.5-0.5c1.1-0.1,2.4-0.1,4.1-0.1c1.7,0,3,0.1,4.1,0.2c1,0.1,1.9,0.3,2.5,0.5
		c0.6,0.2,1,0.5,1.3,0.8c0.2,0.3,0.4,0.7,0.6,1.2L212,88.8l0.2,0.7l0.1-0.8l11.6-44.6c0.1-0.5,0.3-1,0.5-1.4
		c0.3-0.4,0.7-0.7,1.4-0.9c0.6-0.2,1.5-0.4,2.6-0.5c1.1-0.1,2.5-0.1,4.1-0.1c1.7,0,3,0,4.1,0.1c1.1,0.1,1.9,0.2,2.5,0.4
		c0.6,0.2,1,0.5,1.3,0.8C240.6,43,240.7,43.4,240.7,43.9"/>
	<path class="st0" d="M308.2,76.8c0,0.5-0.1,0.8-0.4,1.2c-0.3,0.3-0.7,0.6-1.4,0.8c-0.6,0.2-1.5,0.4-2.6,0.5
		c-1.1,0.1-2.5,0.2-4.1,0.2c-1.7,0-3.1-0.1-4.2-0.2c-1.1-0.1-2-0.3-2.6-0.5c-0.6-0.2-1.1-0.5-1.4-0.8c-0.3-0.3-0.4-0.7-0.4-1.2V42.2
		c0-2.9-0.2-5.3-0.6-6.9c-0.4-1.7-1-3.1-1.9-4.3c-0.8-1.2-1.9-2.1-3.2-2.8c-1.3-0.7-2.8-1-4.5-1c-2.2,0-4.4,0.8-6.6,2.4
		c-2.2,1.6-4.5,3.9-6.9,6.9v40.3c0,0.5-0.1,0.8-0.4,1.2c-0.3,0.3-0.7,0.6-1.4,0.8c-0.7,0.2-1.5,0.4-2.6,0.5
		c-1.1,0.1-2.5,0.2-4.1,0.2c-1.7,0-3.1-0.1-4.2-0.2c-1.1-0.1-2-0.3-2.6-0.5c-0.7-0.2-1.1-0.5-1.4-0.8c-0.3-0.3-0.4-0.7-0.4-1.2V16.2
		c0-0.5,0.1-0.8,0.3-1.2c0.2-0.3,0.6-0.6,1.2-0.8c0.6-0.2,1.3-0.4,2.3-0.5c0.9-0.1,2.1-0.2,3.5-0.2c1.5,0,2.7,0.1,3.6,0.2
		c1,0.1,1.7,0.3,2.2,0.5c0.5,0.2,0.9,0.5,1.1,0.8c0.2,0.3,0.3,0.7,0.3,1.2v7c3.4-3.6,6.8-6.3,10.2-8.2c3.5-1.8,7.1-2.7,10.9-2.7
		c4.1,0,7.6,0.7,10.4,2c2.8,1.4,5.1,3.2,6.9,5.5c1.7,2.3,3,5.1,3.8,8.2c0.8,3.1,1.2,6.9,1.2,11.3V76.8z"/>
	<path class="st0" d="M366.4,87.6c0,3.4-0.6,6.5-1.9,9.1c-1.3,2.6-3.1,4.8-5.5,6.6c-2.4,1.8-5.1,3.1-8.4,4
		c-3.2,0.9-6.7,1.3-10.5,1.3c-2.3,0-4.4-0.2-6.5-0.5c-2.1-0.3-3.9-0.8-5.5-1.3c-1.6-0.5-3-1.1-4.1-1.6c-1.1-0.5-1.9-1.1-2.4-1.5
		c-0.5-0.5-0.9-1.2-1.2-2.2c-0.3-1-0.4-2.5-0.4-4.5c0-1.3,0-2.4,0.1-3.2c0.1-0.8,0.2-1.4,0.4-1.9c0.2-0.5,0.4-0.8,0.7-1
		c0.3-0.2,0.6-0.2,1-0.2c0.5,0,1.2,0.3,2.2,0.9c1,0.6,2.2,1.2,3.6,1.9c1.5,0.7,3.1,1.3,5.1,1.9c1.9,0.6,4.1,0.9,6.6,0.9
		c1.5,0,2.9-0.2,4.1-0.5c1.2-0.3,2.2-0.8,3.1-1.4c0.9-0.6,1.6-1.3,2-2.2c0.5-0.9,0.7-2,0.7-3.1c0-1.4-0.4-2.5-1.3-3.5
		c-0.8-1-1.9-1.8-3.3-2.6c-1.4-0.7-2.9-1.4-4.7-2c-1.8-0.6-3.5-1.3-5.4-2.1c-1.8-0.8-3.6-1.7-5.4-2.7c-1.7-1-3.3-2.2-4.7-3.7
		c-1.4-1.5-2.5-3.2-3.3-5.2c-0.8-2-1.3-4.5-1.3-7.3c0-2.9,0.6-5.6,1.7-8c1.1-2.4,2.8-4.5,4.9-6.2c2.1-1.7,4.7-3.1,7.8-4
		c3.1-1,6.5-1.4,10.3-1.4c1.9,0,3.8,0.1,5.5,0.4c1.8,0.3,3.4,0.6,4.9,1c1.4,0.4,2.7,0.9,3.7,1.3c1,0.5,1.7,0.9,2.1,1.2
		s0.7,0.7,0.9,1c0.2,0.3,0.3,0.7,0.4,1.2c0.1,0.5,0.2,1.1,0.2,1.8c0.1,0.7,0.1,1.6,0.1,2.6c0,1.2,0,2.2-0.1,3
		c-0.1,0.8-0.2,1.4-0.3,1.8c-0.2,0.5-0.4,0.8-0.6,0.9c-0.3,0.2-0.6,0.2-1,0.2c-0.4,0-1-0.2-1.9-0.7c-0.9-0.5-1.9-1-3.2-1.5
		c-1.3-0.5-2.8-1.1-4.5-1.5c-1.7-0.5-3.6-0.7-5.8-0.7c-1.5,0-2.9,0.2-4,0.5c-1.1,0.3-2.1,0.8-2.8,1.4c-0.7,0.6-1.3,1.3-1.6,2.1
		c-0.4,0.8-0.5,1.6-0.5,2.6c0,1.4,0.4,2.6,1.3,3.5c0.9,1,2,1.8,3.4,2.5c1.4,0.7,3,1.4,4.8,2c1.8,0.6,3.6,1.3,5.4,2.1
		c1.8,0.7,3.7,1.6,5.4,2.6c1.8,1,3.4,2.2,4.8,3.7c1.4,1.5,2.5,3.2,3.4,5.2C365.9,82.4,366.4,84.8,366.4,87.6"/>
	<path class="st0" d="M435.4,104.7c0,0.4-0.1,0.8-0.3,1.2c-0.2,0.3-0.6,0.6-1.2,0.8c-0.6,0.2-1.3,0.4-2.2,0.5
		c-0.9,0.1-2.1,0.2-3.5,0.2c-1.5,0-2.7-0.1-3.6-0.2c-0.9-0.1-1.7-0.3-2.2-0.5c-0.5-0.2-0.9-0.5-1.2-0.8c-0.2-0.3-0.3-0.7-0.3-1.2v-7
		c-3.4,3.6-6.8,6.4-10.2,8.2c-3.5,1.8-7.1,2.7-10.8,2.7c-4.2,0-7.7-0.7-10.5-2c-2.8-1.4-5.1-3.2-6.9-5.6c-1.7-2.4-3-5.1-3.7-8.2
		c-0.7-3.1-1.1-7-1.1-11.6V44c0-0.5,0.1-0.8,0.4-1.2c0.2-0.3,0.7-0.6,1.4-0.8c0.7-0.2,1.5-0.4,2.7-0.5c1.1-0.1,2.5-0.2,4.1-0.2
		c1.7,0,3.1,0.1,4.1,0.2c1.1,0.1,2,0.3,2.6,0.5c0.7,0.2,1.1,0.5,1.4,0.8c0.3,0.3,0.4,0.7,0.4,1.2v34.3c0,3.2,0.2,5.6,0.6,7.3
		c0.4,1.7,1,3.1,1.9,4.3c0.8,1.2,1.9,2.1,3.2,2.8c1.3,0.7,2.8,1,4.5,1c2.2,0,4.4-0.8,6.6-2.4c2.2-1.6,4.5-3.9,7-6.9V44
		c0-0.5,0.1-0.8,0.4-1.2c0.2-0.3,0.7-0.6,1.4-0.8c0.7-0.2,1.5-0.4,2.6-0.5c1.1-0.1,2.5-0.2,4.1-0.2c1.7,0,3.1,0.1,4.1,0.2
		c1.1,0.1,2,0.3,2.6,0.5c0.6,0.2,1.1,0.5,1.4,0.8c0.3,0.3,0.4,0.7,0.4,1.2V104.7z"/>
	<path class="st0" d="M490.2,49.7c0,1.6,0,3-0.1,4c-0.1,1-0.2,1.9-0.4,2.4c-0.2,0.6-0.4,1-0.7,1.2c-0.3,0.2-0.7,0.3-1.1,0.3
		c-0.4,0-0.8-0.1-1.2-0.2c-0.5-0.2-1-0.3-1.5-0.5c-0.6-0.2-1.2-0.4-1.9-0.5c-0.7-0.2-1.4-0.2-2.2-0.2c-1,0-1.9,0.2-2.9,0.6
		c-1,0.4-1.9,1-3,1.8c-1,0.8-2.1,1.9-3.2,3.3c-1.1,1.4-2.3,3-3.6,5v37.8c0,0.4-0.1,0.8-0.4,1.2c-0.3,0.3-0.7,0.6-1.4,0.8
		c-0.7,0.2-1.5,0.4-2.6,0.5c-1.1,0.1-2.5,0.2-4.1,0.2c-1.7,0-3.1-0.1-4.1-0.2c-1.1-0.1-2-0.3-2.6-0.5c-0.7-0.2-1.1-0.5-1.4-0.8
		c-0.3-0.3-0.4-0.7-0.4-1.2V44c0-0.5,0.1-0.8,0.3-1.2c0.2-0.3,0.6-0.6,1.2-0.8c0.6-0.2,1.3-0.4,2.3-0.5c0.9-0.1,2.1-0.2,3.5-0.2
		c1.5,0,2.7,0.1,3.6,0.2c1,0.1,1.7,0.3,2.2,0.5c0.5,0.2,0.9,0.5,1.1,0.8c0.2,0.3,0.3,0.7,0.3,1.2v7.6c1.6-2.3,3.1-4.1,4.5-5.6
		c1.4-1.5,2.7-2.6,4-3.5c1.3-0.9,2.5-1.5,3.8-1.8c1.3-0.3,2.5-0.5,3.8-0.5c0.6,0,1.2,0,1.9,0.1c0.7,0.1,1.4,0.2,2.1,0.3
		c0.7,0.2,1.4,0.3,1.9,0.5c0.5,0.2,0.9,0.4,1.2,0.6c0.2,0.2,0.4,0.5,0.5,0.7c0.1,0.3,0.2,0.6,0.3,1.1c0.1,0.5,0.2,1.2,0.2,2.1
		C490.1,46.7,490.2,48,490.2,49.7"/>
	<path class="st0" d="M556.4,44c0,0.2,0,0.5,0,0.8c0,0.3-0.1,0.7-0.1,1.1c-0.1,0.4-0.2,0.8-0.3,1.3c-0.1,0.5-0.3,1.1-0.4,1.7
		l-18.2,54.9c-0.2,0.8-0.5,1.4-0.9,1.9c-0.4,0.5-1,0.8-1.9,1.1c-0.9,0.3-2.1,0.5-3.6,0.5c-1.5,0.1-3.5,0.1-6,0.1
		c-2.4,0-4.4-0.1-5.9-0.2c-1.5-0.1-2.7-0.3-3.6-0.6c-0.9-0.3-1.5-0.6-1.9-1.1c-0.4-0.5-0.7-1.1-0.9-1.8l-18.2-54.9
		c-0.3-0.9-0.5-1.7-0.6-2.4c-0.2-0.7-0.3-1.3-0.3-1.6c0-0.3,0-0.6,0-0.9c0-0.5,0.1-0.9,0.4-1.2c0.2-0.3,0.7-0.6,1.3-0.9
		c0.6-0.2,1.5-0.4,2.6-0.5c1.1-0.1,2.5-0.1,4.2-0.1c1.9,0,3.4,0.1,4.5,0.2c1.1,0.1,2,0.3,2.7,0.5c0.7,0.2,1.1,0.5,1.4,0.9
		c0.3,0.4,0.5,0.9,0.7,1.4L525,88.8l0.4,1.7l0.4-1.7l13.6-44.6c0.1-0.5,0.4-1,0.6-1.4c0.3-0.4,0.8-0.7,1.4-0.9
		c0.6-0.2,1.5-0.4,2.6-0.5c1.1-0.1,2.5-0.2,4.2-0.2c1.7,0,3,0,4.1,0.1c1.1,0.1,1.9,0.3,2.5,0.5c0.6,0.2,1,0.5,1.2,0.9
		C556.3,43.1,556.4,43.5,556.4,44"/>
	<path class="st0" d="M619.8,72.6c0,2.1-0.5,3.6-1.4,4.6c-0.9,1-2.2,1.5-3.8,1.5h-36.9c0,2.6,0.3,4.9,0.9,7c0.6,2.1,1.6,3.9,2.9,5.4
		c1.3,1.5,3.1,2.6,5.2,3.4c2.1,0.8,4.6,1.2,7.6,1.2c3,0,5.6-0.2,7.9-0.6c2.3-0.4,4.2-0.9,5.9-1.4c1.7-0.5,3-1,4.1-1.4
		c1.1-0.4,2-0.6,2.7-0.6c0.4,0,0.7,0.1,1,0.2c0.3,0.2,0.5,0.4,0.7,0.8c0.2,0.4,0.3,1,0.4,1.7c0.1,0.7,0.1,1.7,0.1,2.8
		c0,1,0,1.8-0.1,2.5c0,0.7-0.1,1.3-0.2,1.8c-0.1,0.5-0.2,0.9-0.4,1.3c-0.2,0.3-0.4,0.7-0.7,1c-0.3,0.3-1.1,0.7-2.4,1.3
		c-1.3,0.5-3,1.1-5,1.6c-2,0.5-4.4,1-7,1.4c-2.6,0.4-5.4,0.6-8.4,0.6c-5.4,0-10.1-0.7-14.2-2c-4.1-1.4-7.4-3.4-10.2-6.2
		c-2.7-2.8-4.8-6.3-6.1-10.5c-1.3-4.2-2-9.2-2-14.8c0-5.4,0.7-10.3,2.1-14.6c1.4-4.3,3.4-8,6.1-11c2.7-3,5.9-5.3,9.8-6.9
		c3.8-1.6,8.1-2.4,13-2.4c5.1,0,9.4,0.7,13,2.2c3.6,1.5,6.6,3.6,8.9,6.2c2.3,2.7,4,5.8,5.1,9.4c1.1,3.6,1.6,7.6,1.6,11.8V72.6z
		 M603.2,67.7c0.1-4.8-0.8-8.6-2.9-11.3c-2.1-2.7-5.2-4.1-9.6-4.1c-2.2,0-4.1,0.4-5.7,1.2c-1.6,0.8-2.9,1.9-4,3.3
		c-1.1,1.4-1.9,3-2.4,4.9c-0.6,1.9-0.9,3.9-1,6H603.2z"/>
	<path class="st0" d="M666.4,107l-7.3,21.5c-0.4,1.1-1.5,2-3.3,2.4c-1.8,0.5-4.5,0.7-8,0.7c-1.8,0-3.3-0.1-4.4-0.2
		c-1.1-0.2-1.9-0.4-2.4-0.8c-0.5-0.4-0.8-0.8-0.9-1.4c0-0.5,0.1-1.2,0.4-2l8.1-20.3c-0.6-0.3-1.1-0.7-1.6-1.3
		c-0.5-0.6-0.8-1.2-1.1-1.8L625,48.2c-0.6-1.6-0.9-2.8-0.9-3.6c0-0.8,0.3-1.5,0.8-2c0.5-0.5,1.5-0.8,2.8-1c1.3-0.2,3-0.3,5.1-0.3
		c1.9,0,3.5,0,4.6,0.1c1.1,0.1,2,0.2,2.7,0.5c0.6,0.3,1.1,0.7,1.4,1.3c0.3,0.6,0.6,1.4,1,2.4l14.3,40.6h0.2L670,44.8
		c0.3-1.2,0.6-2,1.1-2.3c0.4-0.4,1.1-0.7,2.1-0.9c1-0.2,2.7-0.3,5.2-0.3c2,0,3.6,0.1,4.9,0.3c1.3,0.2,2.2,0.5,2.9,1
		c0.6,0.5,0.9,1.2,0.9,2c0,0.8-0.2,1.8-0.5,3L666.4,107z"/>
</g>
</svg>
